<?xml version="1.0" encoding="UTF-8" standalone="no"?>
<svg
   version="1.1"
   id="Layer_1"
   x="0px"
   y="0px"
   width="603.50714"
   viewBox="0 0 603.50714 203.49152"
   enable-background="new 0 0 740 596"
   xml:space="preserve"
   height="203.49152"
   xmlns="http://www.w3.org/2000/svg"
   xmlns:svg="http://www.w3.org/2000/svg"><defs
   id="defs69"><linearGradient
     id="swatch135"><stop
       style="stop-color:#9061f9;stop-opacity:1;"
       offset="0"
       id="stop135" /></linearGradient><linearGradient
     id="swatch134"><stop
       style="stop-color:#9061f9;stop-opacity:1;"
       offset="0"
       id="stop134" /></linearGradient></defs>





































































<g
   id="g166"
   transform="translate(-2.483726)"><path
     style="fill:#00ffff;stroke:none;stroke-opacity:1"
     d="m 563.50198,80.725172 16.35795,-24.15261"
     id="path74" /><path
     style="fill:#9061f9;fill-opacity:1;stroke:#9061f9;stroke-opacity:1"
     d="m 584.07789,375.87711 0.7714,1.40932 24.3056,35.22039 0.58179,0.82551 a 10.683846,10.683846 27.66598 0 0 8.63848,4.52876 l 0.22911,0.002 h 19.60618 l -26.7622,-38.51844 a 15.135758,15.135758 45.127881 0 0 -3.73838,-3.75511 16.320528,16.320528 17.554751 0 0 -7.39833,-2.34046 58.634384,58.634384 1.2869691 0 0 -7.96922,-0.17904 l -5.017,0.0222 -1.64183,0.026 a 1.8640588,1.8640588 120.1988 0 0 -1.6056,2.75883 z"
     id="path79"
     transform="matrix(1.0002599,0,0,0.97633162,-66.946322,-308.98297)" /><path
     style="fill:#9061f9;fill-opacity:1;stroke:#9061f9;stroke-opacity:1"
     d="m 631.87568,272.78157 a 8.5619448,8.5619448 87.596856 0 0 0.39487,9.40905 l 8.18114,11.87695 a 34.021711,34.021711 49.402303 0 0 4.65734,5.43426 16.305441,16.305441 18.823951 0 0 10.50147,3.57989 l 13.72727,0.0264 a 1.3410118,1.3410118 117.65087 0 0 1.10364,-2.1065 l -29.56232,-42.52146 -2.21763,3.52056 a 18384.093,18384.093 122.18738 0 0 -6.78578,10.78089 z"
     id="path82"
     transform="translate(-65.181942,-152.75974)" /><path
     style="fill:#00c9d4;fill-opacity:1;stroke:#00c9d4;stroke-width:0.974915;stroke-opacity:1"
     d="m 637.45965,275.87504 5.93803,-8.21272 2.986,-3.75271 a 18.461742,18.461742 152.34187 0 1 13.21487,-6.92565 l 0.6033,-0.0403 10.08435,-0.0189 h 1.28283 a 2.562208,2.562208 62.615619 0 1 2.09289,4.04029 l -0.22318,0.31601 -27.59428,38.82797 -8.49356,-12.20614 a 10.394882,10.394882 90.518059 0 1 0.10875,-12.02781 z"
     id="path84"
     transform="translate(-69.021452,-201.64983)" /><path
     style="fill:#00c9d4;fill-opacity:1;stroke:#00c9d4;stroke-width:0.982843;stroke-opacity:1"
     d="m 590.7944,353.71527 5.3951,0.0302 h 3.64601 l 1.81319,-0.0936 a 22.160986,22.160986 150.6212 0 0 17.18662,-9.67579 807.52801,807.52801 125.03975 0 1 11.53504,-16.44945 l 9.40562,-13.12618 -0.41146,0.60118 5.05179,-7.21426 -20.21883,0.0556 -0.4861,0 a 9.9276926,9.9276926 152.33739 0 0 -8.16448,4.27965 l -3.61329,5.22317 -23.09145,32.89867 a 2.2279807,2.2279807 60.643818 0 0 1.95224,3.47086 z"
     id="path85"
     transform="translate(-72.096051,-203.02435)" /><path
     style="fill:#9061f9;fill-opacity:1;stroke:#9061f9;stroke-opacity:1"
     d="m 365.15757,352.51256 5.75939,0.0165 3.04943,-0.0486 a 13.879908,13.879908 149.07727 0 0 11.91061,-7.13476 l 1.36102,-2.44856 23.26414,-53.70212 19.63171,47.54393 a 66.201572,66.201572 62.683928 0 0 5.16824,10.00639 13.505879,13.505879 26.656798 0 0 11.28294,5.66407 l 3.30106,0.11962 h 5.41784 l 1.16722,0.006 a 4.4187051,4.4187051 123.81393 0 0 4.10037,-6.12184 28632.889,28632.889 67.318056 0 0 -3.30596,-7.91016 l -30.44634,-72.82379 -0.79007,-1.85995 a 12.040061,12.040061 33.194219 0 0 -11.20713,-7.33213 688.23863,688.23863 179.86777 0 1 -9.34425,0.0216 14.401611,14.401611 138.27467 0 0 -11.89736,10.6096 l -0.86897,2.04971 -31.76826,73.55131 -0.86902,1.96979 a 5.5735927,5.5735927 56.985115 0 0 5.08339,7.82328 z"
     id="path88"
     transform="matrix(0.98824971,0,0,0.98957604,-64.265469,-198.47827)" /><path
     style="fill:#9061f9;fill-opacity:1;stroke:#9061f9;stroke-opacity:1"
     d="m 365.15757,352.51256 5.75939,0.0165 3.04943,-0.0486 a 13.879908,13.879908 149.07727 0 0 11.91061,-7.13476 l 1.36102,-2.44856 23.26414,-53.70212 19.63171,47.54393 a 66.201572,66.201572 62.683928 0 0 5.16824,10.00639 13.505879,13.505879 26.656798 0 0 11.28294,5.66407 l 3.30106,0.11962 h 5.41784 l 1.16722,0.006 a 4.4187051,4.4187051 123.81393 0 0 4.10037,-6.12184 28632.889,28632.889 67.318056 0 0 -3.30596,-7.91016 l -30.44634,-72.82379 -0.79007,-1.85995 a 12.040061,12.040061 33.194219 0 0 -11.20713,-7.33213 688.23863,688.23863 179.86777 0 1 -9.34425,0.0216 14.401611,14.401611 138.27467 0 0 -11.89736,10.6096 l -0.86897,2.04971 -31.76826,73.55131 -0.86902,1.96979 a 5.5735927,5.5735927 56.985115 0 0 5.08339,7.82328 z"
     id="path88-8"
     transform="matrix(0.98824971,0,0,-0.98957604,-145.16313,404.20067)" /><path
     style="fill:#9061f9;fill-opacity:0;stroke:#9061f9;stroke-width:21.8487;stroke-linejoin:round;stroke-dasharray:none;stroke-opacity:1"
     id="path89"
     d="M 201.77491,170.45245 69.952105,251.63353 -66.264172,178.06217 -70.657645,23.309737 61.165159,-57.871339 197.38144,15.700019 Z"
     transform="matrix(0.59972478,0.01163714,-0.01552914,0.61380675,51.774645,41.516572)" /><path
     style="fill:#9061f9;fill-opacity:1;stroke:#9061f9;stroke-width:12.633;stroke-linecap:square;stroke-linejoin:miter;stroke-dasharray:none;stroke-opacity:1"
     d="m 478.73159,263.0666 -0.022,82.42747 a 0.75619297,0.75619297 45.007657 0 0 0.7562,0.7564 l 55.19314,0 a 0.44621463,0.44621463 135 0 0 0.44621,-0.44621 v -1.43371 a 7.6016772,7.6016772 44.958397 0 0 -7.61272,-7.60166 l -31.14004,0.0452 a 7.9519932,7.9519932 44.853161 0 1 -7.96349,-7.92278 l -0.21466,-58.4366 a 7.6679118,7.6679118 44.848632 0 0 -7.68021,-7.63974 l -1.51356,0.002 a 0.24923815,0.24923815 134.96153 0 0 -0.24884,0.24917 z"
     id="path95"
     transform="translate(-69.021452,-201.64983)" /><path
     style="fill:#00ffff;stroke:none;stroke-opacity:1"
     d="m 563.50198,80.725172 16.35795,-24.15261"
     id="path135" /><path
     style="fill:#9061f9;fill-opacity:1;stroke:#9061f9;stroke-opacity:1"
     d="m 584.07789,375.87711 0.7714,1.40932 24.3056,35.22039 0.58179,0.82551 a 10.683846,10.683846 27.66598 0 0 8.63848,4.52876 l 0.22911,0.002 h 19.60618 l -26.7622,-38.51844 a 15.135758,15.135758 45.127881 0 0 -3.73838,-3.75511 16.320528,16.320528 17.554751 0 0 -7.39833,-2.34046 58.634384,58.634384 1.2869691 0 0 -7.96922,-0.17904 l -5.017,0.0222 -1.64183,0.026 a 1.8640588,1.8640588 120.1988 0 0 -1.6056,2.75883 z"
     id="path136"
     transform="matrix(1.0002599,0,0,0.97633162,-66.946322,-308.98297)" /><path
     style="fill:#9061f9;fill-opacity:1;stroke:#9061f9;stroke-opacity:1"
     d="m 631.87568,272.78157 a 8.5619448,8.5619448 87.596856 0 0 0.39487,9.40905 l 8.18114,11.87695 a 34.021711,34.021711 49.402303 0 0 4.65734,5.43426 16.305441,16.305441 18.823951 0 0 10.50147,3.57989 l 13.72727,0.0264 a 1.3410118,1.3410118 117.65087 0 0 1.10364,-2.1065 l -29.56232,-42.52146 -2.21763,3.52056 a 18384.093,18384.093 122.18738 0 0 -6.78578,10.78089 z"
     id="path137"
     transform="translate(-65.181942,-152.75974)" /><path
     style="fill:#00c9d4;fill-opacity:1;stroke:#00c9d4;stroke-width:0.974915;stroke-opacity:1"
     d="m 637.45965,275.87504 5.93803,-8.21272 2.986,-3.75271 a 18.461742,18.461742 152.34187 0 1 13.21487,-6.92565 l 0.6033,-0.0403 10.08435,-0.0189 h 1.28283 a 2.562208,2.562208 62.615619 0 1 2.09289,4.04029 l -0.22318,0.31601 -27.59428,38.82797 -8.49356,-12.20614 a 10.394882,10.394882 90.518059 0 1 0.10875,-12.02781 z"
     id="path138"
     transform="translate(-69.021452,-201.64983)" /><path
     style="fill:#00c9d4;fill-opacity:1;stroke:#00c9d4;stroke-width:0.982843;stroke-opacity:1"
     d="m 590.7944,353.71527 5.3951,0.0302 h 3.64601 l 1.81319,-0.0936 a 22.160986,22.160986 150.6212 0 0 17.18662,-9.67579 807.52801,807.52801 125.03975 0 1 11.53504,-16.44945 l 9.40562,-13.12618 -0.41146,0.60118 5.05179,-7.21426 -20.21883,0.0556 -0.4861,0 a 9.9276926,9.9276926 152.33739 0 0 -8.16448,4.27965 l -3.61329,5.22317 -23.09145,32.89867 a 2.2279807,2.2279807 60.643818 0 0 1.95224,3.47086 z"
     id="path139"
     transform="translate(-72.096051,-203.02435)" /><path
     style="fill:#9061f9;fill-opacity:1;stroke:#9061f9;stroke-opacity:1"
     d="m 365.15757,352.51256 5.75939,0.0165 3.04943,-0.0486 a 13.879908,13.879908 149.07727 0 0 11.91061,-7.13476 l 1.36102,-2.44856 23.26414,-53.70212 19.63171,47.54393 a 66.201572,66.201572 62.683928 0 0 5.16824,10.00639 13.505879,13.505879 26.656798 0 0 11.28294,5.66407 l 3.30106,0.11962 h 5.41784 l 1.16722,0.006 a 4.4187051,4.4187051 123.81393 0 0 4.10037,-6.12184 28632.889,28632.889 67.318056 0 0 -3.30596,-7.91016 l -30.44634,-72.82379 -0.79007,-1.85995 a 12.040061,12.040061 33.194219 0 0 -11.20713,-7.33213 688.23863,688.23863 179.86777 0 1 -9.34425,0.0216 14.401611,14.401611 138.27467 0 0 -11.89736,10.6096 l -0.86897,2.04971 -31.76826,73.55131 -0.86902,1.96979 a 5.5735927,5.5735927 56.985115 0 0 5.08339,7.82328 z"
     id="path140"
     transform="matrix(0.98824971,0,0,0.98957604,-64.265469,-198.47827)" /><path
     style="fill:#9061f9;fill-opacity:1;stroke:#9061f9;stroke-opacity:1"
     d="m 365.15757,352.51256 5.75939,0.0165 3.04943,-0.0486 a 13.879908,13.879908 149.07727 0 0 11.91061,-7.13476 l 1.36102,-2.44856 23.26414,-53.70212 19.63171,47.54393 a 66.201572,66.201572 62.683928 0 0 5.16824,10.00639 13.505879,13.505879 26.656798 0 0 11.28294,5.66407 l 3.30106,0.11962 h 5.41784 l 1.16722,0.006 a 4.4187051,4.4187051 123.81393 0 0 4.10037,-6.12184 28632.889,28632.889 67.318056 0 0 -3.30596,-7.91016 l -30.44634,-72.82379 -0.79007,-1.85995 a 12.040061,12.040061 33.194219 0 0 -11.20713,-7.33213 688.23863,688.23863 179.86777 0 1 -9.34425,0.0216 14.401611,14.401611 138.27467 0 0 -11.89736,10.6096 l -0.86897,2.04971 -31.76826,73.55131 -0.86902,1.96979 a 5.5735927,5.5735927 56.985115 0 0 5.08339,7.82328 z"
     id="path141"
     transform="matrix(0.98824971,0,0,-0.98957604,-145.16313,404.20067)" /><path
     style="fill:#9061f9;fill-opacity:0;stroke:#9061f9;stroke-width:21.8487;stroke-linejoin:round;stroke-dasharray:none;stroke-opacity:1"
     id="path142"
     d="M 201.77491,170.45245 69.952105,251.63353 -66.264172,178.06217 -70.657645,23.309737 61.165159,-57.871339 197.38144,15.700019 Z"
     transform="matrix(0.59972478,0.01163714,-0.01552914,0.61380675,51.774645,41.516572)" /><path
     style="fill:#9061f9;fill-opacity:1;stroke:#9061f9;stroke-width:12.633;stroke-linecap:square;stroke-linejoin:miter;stroke-dasharray:none;stroke-opacity:1"
     d="m 478.73159,263.0666 -0.022,82.42747 a 0.75619297,0.75619297 45.007657 0 0 0.7562,0.7564 l 55.19314,0 a 0.44621463,0.44621463 135 0 0 0.44621,-0.44621 v -1.43371 a 7.6016772,7.6016772 44.958397 0 0 -7.61272,-7.60166 l -31.14004,0.0452 a 7.9519932,7.9519932 44.853161 0 1 -7.96349,-7.92278 l -0.21466,-58.4366 a 7.6679118,7.6679118 44.848632 0 0 -7.68021,-7.63974 l -1.51356,0.002 a 0.24923815,0.24923815 134.96153 0 0 -0.24884,0.24917 z"
     id="path143"
     transform="translate(-69.021452,-201.64983)" /><path
     style="fill:#9061f9;fill-opacity:1;stroke:#9061f9;stroke-width:10.0034;stroke-linecap:square;stroke-linejoin:miter;stroke-dasharray:none;stroke-opacity:1"
     d="m 516.31623,49.720728 0.0251,64.095242 a 3.1750351,3.1750351 46.328713 0 0 3.02659,3.17032 l 2.48488,0.11631 2.42159,0.0397 a 8.1156542,8.1156542 138.17864 0 0 8.21226,-7.34811 234.47895,234.47895 91.222839 0 0 0.5136,-24.060946 l -0.12537,-15.475815 a 1654.689,1654.689 89.134111 0 0 -0.35067,-23.202147 l -0.0858,-3.876459 a 8.5070193,8.5070193 46.111349 0 0 -8.49917,-8.835445 l -5.26958,0.121835 a 2.3199685,2.3199685 134.57346 0 0 -2.26627,2.300262 l -0.0696,8.458643 a 521.69208,521.69208 90.224465 0 0 -0.0176,4.49666 z"
     id="path162"
     transform="matrix(0.94539426,0,0,1.0341635,-2.211895,23.98309)" /><path
     style="fill:#00c9d4;fill-opacity:1;stroke:#00c9d4;stroke-width:8.35092;stroke-linecap:square;stroke-linejoin:miter;stroke-dasharray:none;stroke-opacity:1"
     d="m 114.99111,107.94971 28.12541,28.89534 a 4.8321475,4.8321475 179.79555 0 0 6.9493,-0.0248 l 61.6757,-64.275516 a 5.184878,5.184878 89.857434 0 0 -0.0179,-7.198215 4.090094,4.090094 167.87784 0 0 -5.75923,1.237002 l -55.83447,58.281939 a 4.8084571,4.8084571 179.89011 0 1 -6.93165,0.0133 l -22.15052,-22.94464 a 4.9296051,4.9296051 0.6026702 0 0 -7.02038,-0.0738 4.3815916,4.3815916 81.006667 0 0 0.96375,6.08943 z"
     id="path166"
     transform="matrix(1.0038461,0,0,0.99979482,-67.671222,-0.10124864)" /></g></svg>
